<?xml version="1.0" standalone="no"?>
<!DOCTYPE svg PUBLIC "-//W3C//DTD SVG 20010904//EN" "http://www.w3.org/TR/2001/REC-SVG-20010904/DTD/svg10.dtd">
<!-- Created using Krita: https://krita.org -->
<svg xmlns="http://www.w3.org/2000/svg" 
    xmlns:xlink="http://www.w3.org/1999/xlink"
    xmlns:krita="http://krita.org/namespaces/svg/krita"
    xmlns:sodipodi="http://sodipodi.sourceforge.net/DTD/sodipodi-0.dtd"
    width="720pt"
    height="720pt"
    viewBox="0 0 720 720">
<defs/>
<path id="shape0" transform="matrix(-0.569370314166585 0.0398585834018668 0.0398585834018668 0.569370314166584 70.2611117213464 28.1354665697922)" fill="none" stroke="#006f9b" stroke-width="5.76" stroke-linecap="square" stroke-linejoin="bevel" d="M1.47543 51.7673C-0.709946 55.0596 1.25664 43.1794 1.75356 39.2591C3.55002 25.0865 6.04589 16.072 17.9876 7.4245C21.9027 4.58934 46.1762 -4.20344 48.7718 2.4094C61.9422 35.9636 23.2978 51.2549 0 51.2549" sodipodi:nodetypes="ccccc"/><path id="shape01" transform="matrix(-0.568802043830325 0.0472810348808487 0.0472810348808487 0.568802043830325 64.4517098652341 34.407022707375)" fill="#006f9b" fill-rule="evenodd" stroke="#006f9b" stroke-width="1.44" stroke-linecap="square" stroke-linejoin="bevel" d="M0 28.3714L2.92392 17.9732L7.13315 10.198L13.1027 4.93439L20.3141 1.52578L25.7996 0.374477L29.7067 0L24.7563 2.56038L15.6839 8.86379L10.0379 14.359L6.10339 20.126L2.53456 25.5585L0.091702 30.094" sodipodi:nodetypes="ccccccccccccc"/><path id="shape02" transform="matrix(0.569370314166585 0.0398585834018668 -0.0398585834018668 0.569370314166584 8.0413792897787 27.7209048048692)" fill="none" stroke="#006f9b" stroke-width="5.76" stroke-linecap="square" stroke-linejoin="bevel" d="M1.47543 51.7673C-0.709946 55.0596 1.25664 43.1794 1.75356 39.2591C3.55002 25.0865 6.04589 16.072 17.9876 7.4245C21.9027 4.58934 46.1762 -4.20344 48.7718 2.4094C61.9422 35.9636 23.2978 51.2549 0 51.2549" sodipodi:nodetypes="ccccc"/><path id="shape03" transform="matrix(0.568802043830325 0.0472810348808487 -0.0472810348808487 0.568802043830325 13.850781145891 33.992460942451)" fill="#006f9b" fill-rule="evenodd" stroke="#006f9b" stroke-width="1.44" stroke-linecap="square" stroke-linejoin="bevel" d="M0 28.3714L2.92392 17.9732L7.13315 10.198L13.1027 4.93439L20.3141 1.52578L25.7996 0.374477L29.7067 0L24.7563 2.56038L15.6839 8.86379L10.0379 14.359L6.10339 20.126L2.53456 25.5585L0.091702 30.094" sodipodi:nodetypes="ccccccccccccc"/><path id="shape04" transform="matrix(0.426854319879904 0.378901901453165 -0.378901901453164 0.426854319879904 38.1498652023506 -4.3554906201628)" fill="none" stroke="#006f9b" stroke-width="5.76" stroke-linecap="square" stroke-linejoin="bevel" d="M1.47543 51.7673C-0.709946 55.0596 1.25664 43.1794 1.75356 39.2591C3.55002 25.0865 6.04589 16.072 17.9876 7.4245C21.9027 4.58934 46.1762 -4.20344 48.7718 2.4094C61.9422 35.9636 23.2978 51.2549 0 51.2549" sodipodi:nodetypes="ccccc"/><path id="shape05" transform="matrix(0.421876300171232 0.384436794127191 -0.38443679412719 0.421876300171232 38.9275540727101 4.15783812560801)" fill="#006f9b" fill-rule="evenodd" stroke="#006f9b" stroke-width="1.44" stroke-linecap="square" stroke-linejoin="bevel" d="M0 28.3714L2.92392 17.9732L7.13315 10.198L13.1027 4.93439L20.3141 1.52578L25.7996 0.374477L29.7067 0L24.7563 2.56038L15.6839 8.86379L10.0379 14.359L6.10339 20.126L2.53456 25.5585L0.091702 30.094" sodipodi:nodetypes="ccccccccccccc"/>
</svg>
