<?xml version="1.0" standalone="no"?>
<!DOCTYPE svg PUBLIC "-//W3C//DTD SVG 20010904//EN" "http://www.w3.org/TR/2001/REC-SVG-20010904/DTD/svg10.dtd">
<!-- Created using Krita: https://krita.org -->
<svg xmlns="http://www.w3.org/2000/svg" 
    xmlns:xlink="http://www.w3.org/1999/xlink"
    xmlns:krita="http://krita.org/namespaces/svg/krita"
    xmlns:sodipodi="http://sodipodi.sourceforge.net/DTD/sodipodi-0.dtd"
    width="480pt"
    height="480pt"
    viewBox="0 0 480 480">
<defs/>
<path id="shape0" transform="translate(10.544, 3.59999999999997)" fill="none" stroke="#006f9b" stroke-width="1.2" stroke-linecap="square" stroke-linejoin="bevel" d="M8.455 48.571L8.298 48.621L8.045 48.714L7.788 48.819L7.53 48.937L7.268 49.066L7.005 49.207L6.74 49.36L6.475 49.524L6.208 49.699L5.941 49.886L5.673 50.083L5.406 50.291L5.14 50.51L4.875 50.739L4.611 50.978L4.349 51.227L4.09 51.486L3.833 51.754L3.579 52.032L3.328 52.319L3.081 52.616L2.838 52.921L2.62 53.208L2.411 53.496L2.209 53.786L2.016 54.076L1.831 54.367L1.655 54.658L1.487 54.949L1.328 55.24L1.178 55.53L1.036 55.819L0.903 56.107L0.779 56.393L0.664 56.677L0.557 56.959L0.46 57.237L0.372 57.513L0.293 57.786L0.224 58.055L0.163 58.32L0.112 58.581L0.071 58.837L0.039 59.088L0.016 59.334L0.003 59.574L0 59.809L0.006 60.037L0.023 60.259L0.049 60.473L0.085 60.681L0.131 60.881L0.187 61.073L0.254 61.257L0.33 61.432L0.417 61.599L0.514 61.756L0.621 61.904L0.739 62.042L0.868 62.17L1.007 62.287L1.167 62.401L1.337 62.5L1.515 62.584L1.701 62.653L1.895 62.708L2.096 62.748L2.304 62.775L2.519 62.787L2.739 62.786L2.966 62.771L3.197 62.742L3.434 62.701L3.676 62.646L3.921 62.578L4.171 62.498L4.424 62.405L4.68 62.3L4.939 62.183L5.2 62.053L5.463 61.912L5.728 61.76L5.994 61.595L6.261 61.42L6.528 61.234L6.795 61.036L7.062 60.828L7.328 60.61L7.593 60.381L7.857 60.142L8.119 59.892L8.379 59.634L8.636 59.365L8.89 59.087L9.14 58.8L9.387 58.503L9.63 58.198L9.848 57.911L10.058 57.623L10.259 57.334L10.452 57.043L10.637 56.752L10.813 56.461L10.981 56.17L11.14 55.879L11.291 55.589L11.433 55.3L11.565 55.012L11.69 54.726L11.805 54.442L11.911 54.161L12.008 53.882L12.096 53.606L12.175 53.333L12.245 53.064L12.305 52.799L12.356 52.538L12.376 52.418L13.388 52.194L13.448 52.363L13.55 52.626L13.663 52.892L13.786 53.16L13.919 53.43L14.061 53.702L14.214 53.975L14.376 54.249L14.547 54.524L14.728 54.799L14.918 55.074L15.118 55.348L15.326 55.622L15.543 55.895L15.77 56.166L16.004 56.436L16.248 56.703L16.5 56.968L16.76 57.231L17.026 57.487L17.295 57.736L17.566 57.975L17.838 58.207L18.113 58.429L18.388 58.643L18.665 58.847L18.942 59.043L19.22 59.229L19.497 59.406L19.774 59.574L20.05 59.732L20.326 59.881L20.599 60.02L20.871 60.149L21.141 60.268L21.408 60.377L21.673 60.476L21.934 60.565L22.192 60.643L22.446 60.711L22.695 60.768L22.941 60.814L23.181 60.85L23.416 60.875L23.646 60.888L23.87 60.891L24.087 60.882L24.298 60.862L24.502 60.831L24.699 60.788L24.889 60.733L25.07 60.666L25.243 60.588L25.407 60.497L25.563 60.394L25.709 60.279L25.846 60.152L25.971 60.014L26.084 59.866L26.185 59.709L26.273 59.543L26.349 59.369L26.413 59.187L26.465 58.997L26.506 58.8L26.535 58.595L26.552 58.384L26.557 58.166L26.552 57.942L26.535 57.713L26.507 57.478L26.468 57.238L26.418 56.994L26.358 56.745L26.286 56.492L26.205 56.235L26.112 55.975L26.01 55.712L25.897 55.446L25.774 55.178L25.642 54.908L25.499 54.636L25.347 54.363L25.185 54.089L25.013 53.814L24.832 53.54L24.642 53.265L24.443 52.99L24.234 52.716L24.017 52.443L23.791 52.172L23.556 51.903L23.312 51.635L23.06 51.37L22.8 51.108L22.534 50.851L22.266 50.602L21.995 50.363L21.722 50.132L21.448 49.909L21.172 49.696L20.895 49.491L20.618 49.295L20.34 49.109L20.063 48.932L19.786 48.764L19.51 48.606L19.235 48.457L19.148 48.413L19.11 48.37L18.921 48.163L18.735 47.956L18.556 47.744L18.387 47.525L18.233 47.297L18.098 47.055L17.986 46.797L17.901 46.52L17.848 46.221L17.831 45.896L17.838 45.642L17.855 45.393L17.882 45.147L17.917 44.906L17.96 44.668L18.01 44.433L18.065 44.2L18.126 43.97L18.191 43.74L18.26 43.512L18.332 43.285L18.405 43.057L18.479 42.829L18.553 42.601L18.627 42.371L18.699 42.139L18.769 41.905L18.835 41.669L18.897 41.429L18.955 41.186L19.006 40.938L19.051 40.686L19.066 40.589L19.254 40.532L19.78 40.364L20.309 40.185L20.841 39.994L21.377 39.793L21.915 39.581L22.456 39.359L22.998 39.125L23.542 38.882L24.087 38.628L24.633 38.365L25.179 38.091L25.726 37.808L26.272 37.515L26.817 37.213L27.361 36.901L27.904 36.581L28.444 36.251L28.983 35.912L29.519 35.565L30.052 35.21L30.582 34.845L31.108 34.473L31.63 34.093L32.147 33.704L32.66 33.308L33.167 32.904L33.669 32.493L33.728 32.443L34.885 33.645L36.281 33.641L37.762 32.735L38.693 30.693L38.457 28.258L38.406 28.07L38.624 27.857L39.149 27.332L39.664 26.805L40.169 26.276L40.665 25.745L41.151 25.213L41.627 24.68L42.093 24.145L42.549 23.61L42.995 23.075L43.43 22.539L43.855 22.003L44.269 21.468L44.673 20.933L45.066 20.398L45.448 19.865L45.819 19.332L46.179 18.801L46.528 18.272L46.865 17.745L47.192 17.219L47.506 16.696L47.809 16.176L48.101 15.658L48.38 15.144L48.648 14.633L48.904 14.125L49.147 13.621L49.378 13.121L49.597 12.625L49.804 12.134L49.998 11.648L50.179 11.166L50.348 10.69L50.504 10.219L50.646 9.753L50.776 9.294L50.893 8.841L50.996 8.394L51.086 7.954L51.163 7.52L51.225 7.094L51.275 6.675L51.31 6.263L51.331 5.86L51.335 5.668L46.87 5.188L47.013 0.061L46.73 0.039L46.366 0.018L45.992 0.005L45.607 0L45.211 0.003L44.805 0.013L44.39 0.032L43.965 0.058L43.531 0.092L43.087 0.134L42.635 0.185L42.175 0.243L41.707 0.309L41.23 0.384L40.747 0.467L40.256 0.559L39.758 0.658L39.253 0.767L38.742 0.883L38.225 1.008L37.702 1.142L37.173 1.285L36.639 1.436L36.1 1.595L35.557 1.764L35.009 1.941L34.457 2.128L33.901 2.323L33.342 2.527L32.779 2.74L32.214 2.963L31.646 3.194L31.075 3.435L30.502 3.685L29.928 3.944L29.352 4.212L28.774 4.49L28.196 4.778L27.617 5.075L27.037 5.381L26.458 5.697L25.878 6.022L25.299 6.358L24.721 6.703L24.144 7.058L23.568 7.422L22.994 7.797L22.421 8.182L21.851 8.576L21.283 8.981L20.718 9.395L20.156 9.82L19.597 10.255L19.042 10.701L18.558 11.088L18.087 11.477L17.626 11.867L17.177 12.259L16.74 12.653L16.313 13.049L15.898 13.446L15.494 13.846L15.1 14.247L14.718 14.65L14.346 15.055L13.985 15.463L13.634 15.872L13.294 16.283L12.964 16.697L12.644 17.112L12.335 17.53L12.035 17.95L11.746 18.373L11.466 18.798L11.196 19.225L10.935 19.654L10.685 20.086L10.443 20.521L10.211 20.958L9.988 21.398L9.775 21.84L9.57 22.285L9.374 22.733L9.187 23.183L9.009 23.637L8.84 24.093L8.679 24.552L8.527 25.014L8.382 25.478L8.247 25.946L8.119 26.417L7.999 26.891L7.887 27.368L7.784 27.848L7.688 28.332L7.599 28.819L7.518 29.308L7.445 29.802L7.379 30.298L7.32 30.798L7.268 31.302L7.224 31.809L7.186 32.319L7.155 32.833L7.131 33.351L7.114 33.872L7.103 34.397L7.099 34.926L7.101 35.458L7.11 35.995L7.124 36.535L7.145 37.079L7.171 37.627L7.204 38.179L7.242 38.735L7.275 39.155L7.035 39.14L7.049 39.413L7.064 39.684L7.078 39.952L7.093 40.217L7.108 40.479L7.124 40.739L7.14 40.996L7.157 41.25L7.174 41.502L7.192 41.752L7.211 42L7.231 42.245L7.252 42.488L7.275 42.728L7.298 42.967L7.322 43.204L7.348 43.439L7.375 43.672L7.404 43.904L7.434 44.133L7.465 44.362L7.499 44.588L7.534 44.813L7.571 45.037L7.609 45.26L7.65 45.481L7.693 45.701L7.738 45.92L7.785 46.138L7.835 46.354L7.902 46.617L7.971 46.878L8.041 47.139L8.112 47.4L8.184 47.659L8.258 47.918L8.333 48.175L8.411 48.43L8.455 48.571" sodipodi:nodetypes="cccccccccccccccccccccccccccccccccccccccccccccccccccccccccccccccccccccccccccccccccccccccccccccccccccccccccccccccccccccccccccccccccccccccccccccccccccccccccccccccccccccccccccccccccccccccccccccccccccccccccccccccccccccccccccccccccccccccccccccccccccccccccccccccccccccccccccccccccccccccccccccccccccccccccccccccccccccccccccccccccccccccccccccccccccccccccccccccccccccccccccccccccccccccccccccccccccccccccccccccccccccccccccccccccccccccccccccccccccccccccccccccccccccccccccccccccccccccccccccccccccccccccccccccccccccc"/><path id="shape1" transform="translate(22.473103515625, 7.02999999999997)" fill="none" stroke="#006f9b" stroke-width="1.2" stroke-linecap="square" stroke-linejoin="bevel" d="M7.788 2.047L7.629 2.009L7.37 1.958L7.109 1.917L6.846 1.887L6.582 1.867L6.316 1.858L6.049 1.859L5.783 1.87L5.516 1.892L5.25 1.924L4.984 1.967L4.721 2.021L4.458 2.086L4.198 2.161L3.94 2.247L3.686 2.344L3.434 2.452L3.187 2.571L2.944 2.701L2.705 2.841L2.471 2.993L2.224 3.17L1.99 3.356L1.768 3.55L1.559 3.751L1.363 3.96L1.18 4.176L1.009 4.398L0.852 4.627L0.707 4.86L0.576 5.099L0.458 5.342L0.354 5.588L0.262 5.839L0.184 6.092L0.12 6.348L0.07 6.606L0.033 6.866L0.01 7.127L0 7.388L0.005 7.649L0.024 7.911L0.057 8.171L0.104 8.43L0.165 8.687L0.241 8.942L0.331 9.194L0.436 9.443L0.556 9.689L0.69 9.93L0.839 10.166L1.002 10.398L1.181 10.624L1.355 10.823L1.538 11.012L1.73 11.192L1.928 11.362L2.134 11.522L2.347 11.673L2.566 11.814L2.579 11.822L2.747 11.645L3.08 11.302L3.418 10.958L3.763 10.613L4.115 10.269L4.472 9.925L4.836 9.581L5.205 9.237L5.58 8.894L5.961 8.551L6.348 8.21L6.74 7.869L7.137 7.529L7.54 7.191L7.946 6.856L8.352 6.526L8.758 6.202L9.164 5.884L9.57 5.571L9.976 5.265L10.38 4.964L10.785 4.669L11.188 4.379L11.59 4.096L11.991 3.819L12.391 3.548L12.789 3.284L13.185 3.025L13.58 2.773L13.972 2.528L14.363 2.289L14.751 2.056L15.116 1.842L15.073 1.79L14.847 1.551L14.643 1.359L14.429 1.18L14.208 1.012L13.979 0.858L13.743 0.715L13.502 0.585L13.256 0.468L13.005 0.363L12.751 0.272L12.494 0.193L12.235 0.128L11.975 0.076L11.715 0.037L11.455 0.012L11.197 0L10.94 0.002L10.687 0.018L10.437 0.048L10.191 0.092L9.951 0.151L9.716 0.223L9.489 0.31L9.269 0.412L9.057 0.528L8.855 0.659L8.631 0.831L8.429 1.018L8.25 1.217L8.094 1.428L7.96 1.65L7.849 1.881L7.788 2.047" sodipodi:nodetypes="ccccccccccccccccccccccccccccccccccccccccccccccccccccccccccccccccccccccccccccccccccccccccccccccccccccccccccccccccccccccccccccccccc"/><path id="shape2" transform="matrix(1.01300411340594 -0.0532949621198889 0.0532503206305923 1.01215559019685 39.3373967899108 7.49601549749991)" fill="none" stroke="#006f9b" stroke-width="1.2" stroke-linecap="square" stroke-linejoin="bevel" d="M1.032 0.351L0.967 0.491L0.837 0.798L0.716 1.11L0.604 1.426L0.501 1.747L0.407 2.072L0.323 2.4L0.248 2.733L0.183 3.07L0.127 3.41L0.082 3.753L0.046 4.1L0.021 4.45L0.005 4.804L0 5.16L0.006 5.519L0.022 5.881L0.048 6.245L0.085 6.612L0.134 6.981L0.193 7.352L0.263 7.725L0.339 8.08L0.425 8.433L0.52 8.782L0.624 9.129L0.736 9.472L0.857 9.813L0.987 10.15L1.124 10.484L1.27 10.815L1.424 11.142L1.586 11.465L1.755 11.785L1.932 12.1L2.117 12.412L2.308 12.72L2.507 13.023L2.713 13.322L2.926 13.617L3.146 13.908L3.372 14.193L3.605 14.475L3.844 14.751L4.089 15.022L4.34 15.288L4.597 15.55L4.86 15.805L5.128 16.056L5.402 16.301L5.681 16.541L5.966 16.775L6.255 17.003L6.55 17.225L6.849 17.441L7.153 17.652L7.461 17.856L7.774 18.053L8.091 18.245L8.412 18.429L8.737 18.608L9.065 18.779L9.398 18.944L9.733 19.101L10.073 19.252L10.415 19.396L10.761 19.532L11.109 19.661L11.46 19.782L11.814 19.896L12.171 20.002L12.529 20.1L12.778 20.163L12.799 20.1L12.491 20.009L12.137 19.895L11.786 19.773L11.437 19.644L11.092 19.508L10.749 19.365L10.41 19.214L10.074 19.056L9.742 18.892L9.413 18.72L9.088 18.542L8.767 18.357L8.45 18.166L8.138 17.968L7.829 17.764L7.526 17.554L7.226 17.338L6.932 17.115L6.642 16.887L6.358 16.653L6.079 16.414L5.805 16.169L5.536 15.918L5.273 15.662L5.016 15.401L4.765 15.135L4.52 14.863L4.281 14.587L4.048 14.306L3.822 14.02L3.603 13.73L3.39 13.435L3.184 13.136L2.985 12.832L2.793 12.525L2.609 12.213L2.432 11.897L2.262 11.578L2.1 11.254L1.947 10.927L1.801 10.597L1.663 10.263L1.534 9.925L1.413 9.585L1.3 9.241L1.197 8.895L1.102 8.545L1.016 8.193L0.939 7.838L0.869 7.465L0.81 7.094L0.762 6.725L0.725 6.358L0.698 5.994L0.682 5.632L0.677 5.273L0.682 4.916L0.697 4.563L0.723 4.213L0.758 3.866L0.804 3.522L0.859 3.182L0.924 2.846L0.999 2.513L1.083 2.184L1.177 1.86L1.28 1.539L1.392 1.223L1.514 0.911L1.644 0.604L1.783 0.301L1.926 0.013L1.803 0.06L1.829 0.048L1.032 0.351M1.933 0L1.829 0.048L1.927 0.011L1.931 0.003L1.933 0" sodipodi:nodetypes="ccccccccccccccccccccccccccccccccccccccccccccccccccccccccccccccccccccccccccccccccccccccccccccccccccccccccccccccccccccccccccccccccccccccccccccccccccccccccccc"/><ellipse id="shape01" transform="matrix(0.581868686361071 -0.463229051486585 0.375688680212421 0.471907964611447 42.3133392127223 10.9983702459694)" rx="6.84" ry="6.95999999999998" cx="6.84" cy="6.95999999999998" fill="none" stroke="#006f9b" stroke-width="1.2" stroke-linecap="square" stroke-linejoin="bevel"/><path id="shape3" transform="translate(44.088, 6.65799999999996)" fill="none" stroke="#006f9b" stroke-width="1.2" stroke-linecap="square" stroke-linejoin="bevel" d="M6.008 0.015L5.86 0.004L5.595 0L5.327 0.01L5.057 0.034L4.786 0.074L4.514 0.128L4.242 0.197L3.97 0.28L3.7 0.379L3.432 0.492L3.167 0.619L2.906 0.762L2.648 0.919L2.395 1.092L2.148 1.279L1.91 1.478L1.686 1.685L1.475 1.901L1.277 2.124L1.093 2.354L0.923 2.59L0.767 2.831L0.624 3.077L0.496 3.326L0.383 3.579L0.283 3.835L0.199 4.093L0.129 4.351L0.074 4.611L0.034 4.87L0.01 5.129L0 5.386L0.006 5.641L0.028 5.894L0.066 6.143L0.119 6.387L0.189 6.627L0.275 6.862L0.377 7.09L0.496 7.312L0.631 7.526L0.783 7.732L0.949 7.926L1.128 8.106L1.317 8.271L1.517 8.422L1.726 8.558L1.944 8.679L2.171 8.787L2.405 8.879L2.646 8.957L2.893 9.02L3.146 9.069L3.404 9.103L3.665 9.122L3.93 9.127L4.198 9.117L4.468 9.092L4.74 9.053L5.012 8.998L5.284 8.93L5.555 8.846L5.825 8.748L6.093 8.635L6.358 8.507L6.62 8.364L6.878 8.207L7.13 8.035L7.378 7.848L7.615 7.649L7.84 7.441L8.051 7.225L8.249 7.002L8.433 6.772L8.603 6.537L8.759 6.295L8.901 6.05L9.029 5.8L9.143 5.547L9.242 5.291L9.327 5.034L9.397 4.775L9.452 4.515L9.462 4.445L9.287 4.704L9.033 4.993L8.745 5.246L8.426 5.462L8.08 5.636L7.71 5.764L7.319 5.844L6.912 5.871L6.505 5.844L6.114 5.764L5.744 5.636L5.398 5.462L5.079 5.246L4.791 4.993L4.537 4.704L4.322 4.385L4.148 4.039L4.019 3.669L3.939 3.278L3.912 2.871L3.939 2.464L4.019 2.074L4.148 1.704L4.322 1.357L4.537 1.038L4.791 0.75L5.079 0.496L5.398 0.281L5.744 0.107L6.008 0.015" sodipodi:nodetypes="ccccccccccccccccccccccccccccccccccccccccccccccccccccccccccccccccccccccccccccccccccccccccccccccccccccccccccccccccccc"/><path id="shape4" transform="translate(42.162, 28.461)" fill="none" stroke="#006f9b" stroke-width="1.2" stroke-linecap="square" stroke-linejoin="bevel" d="M6.533 0L7.724 3.098L7.964 5.276L8.03 7.549L7.25 10.212L6.408 11.909L5.037 13.052L2.528 13.86L0.806 13.402L0.007 12.382L0 11.138L1.14 9.552L2.088 6.463L1.68 3.145L2.317 2.732L2.889 4.122L2.824 6.295L2.367 7.528L2.593 8.334L3.293 8.854L4.493 8.844L5.977 7.873L6.663 6.887L6.907 5.635L6.94 3.768L6.492 2.304L5.948 0.934L5.671 0.558L6.533 0" sodipodi:nodetypes="ccccccccccccccccccccccccccccc"/><path id="shape5" transform="matrix(0.992108580185384 -0.125381677778481 0.125381677778481 0.992108580185384 37.1360577545724 28.7644354034377)" fill="none" stroke="#006f9b" stroke-width="1.2" stroke-linecap="square" stroke-linejoin="bevel" d="M1.00339 0C-1.67621 3.25107 1.54643 6.10265 4.40837 5.83164" sodipodi:nodetypes="cc"/><path id="shape6" transform="matrix(0.992108580185384 -0.125381677778481 0.125381677778481 0.992108580185384 25.3760577545724 30.6844354034377)" fill="none" stroke="#006f9b" stroke-width="1.2" stroke-linecap="square" stroke-linejoin="bevel" d="M1.00339 0C-1.67621 3.25107 1.54643 6.10265 4.40837 5.83164" sodipodi:nodetypes="cc"/><path id="shape7" transform="translate(30.7840864950529, 17.9946457129506)" fill="none" stroke="#006f9b" stroke-width="1.2" stroke-linecap="square" stroke-linejoin="bevel" d="M1.17765 0C-1.9673 3.80362 1.81499 7.13986 5.17395 6.8228" sodipodi:nodetypes="cc"/><ellipse id="shape8" transform="translate(4.48228271484351, 27.6330908203122)" rx="4.32684997558596" ry="4.92788085937497" cx="4.32684997558596" cy="4.92788085937497" fill="none" stroke="#006f9b" stroke-width="1.2" stroke-linecap="square" stroke-linejoin="bevel"/><ellipse id="shape9" transform="matrix(0.779999999999995 0 0 0.779999999999996 54.926799023435 39.0401809570296)" rx="4.6307609675495" ry="5.28" cx="4.6307609675495" cy="5.28" fill="none" stroke="#006f9b" stroke-width="1.2" stroke-linecap="square" stroke-linejoin="bevel"/><path id="shape10" transform="translate(49.9771517707304, 6.63563342470536)" fill="none" stroke="#006f9b" stroke-width="1.2" stroke-linecap="square" stroke-linejoin="bevel" d="M0 0L1.17558 0.0087085L2.03246 0.438922L2.74051 1.00499L3.54027 1.99953L3.71615 3.00453L3.63648 4.42057" sodipodi:nodetypes="ccccccc"/>
</svg>
