<?xml version="1.0" encoding="iso-8859-1"?>
<!-- Uploaded to: SVG Repo, www.svgrepo.com, Generator: SVG Repo Mixer Tools -->
<!DOCTYPE svg PUBLIC "-//W3C//DTD SVG 1.1//EN" "http://www.w3.org/Graphics/SVG/1.1/DTD/svg11.dtd">
<svg fill="#000000" version="1.1" id="Capa_1" xmlns="http://www.w3.org/2000/svg" xmlns:xlink="http://www.w3.org/1999/xlink" 
	 width="800px" height="800px" viewBox="0 0 276.648 276.647"
	 xml:space="preserve">
<g>
	<path d="M67.964,0h18.158v55.987H67.964v-7.566H43.251V7.565h24.713V0z M143.557,173.759h58.729v-67.521
		c5.226,2.293,10.616,5.766,12.33,10.512c2.672,7.421-4.043,17.508-10.154,24.66l13.801,11.798
		c13.436-15.746,17.957-30.086,13.436-42.625c-7.188-19.931-33.916-25.094-36.942-25.621l-10.628-1.841v0.432l-0.059-0.213
		l-11.213,75.282l-11.153-78.297v-2.385l-61.691-38.713l-9.646,15.38l53.19,33.375V173.759z M202.287,189.18v-9.374h-58.729v20.415
		l22.13,17.366l-32.778,58.854h56.031v-18.157h-25.132l16.349-29.348l17.862,14.009v33.703h18.158v-42.534l-27.083-21.249
		L202.287,189.18z"/>
</g>
</svg>