<?xml version="1.0" encoding="UTF-8" standalone="no"?>
<!-- Created with Inkscape (http://www.inkscape.org/) -->

<svg
   width="410mm"
   height="597mm"
   viewBox="0 0 410 597"
   version="1.1"
   id="svg1"
   xml:space="preserve"
   sodipodi:docname="logistics.svg"
   inkscape:version="1.3 (0e150ed, 2023-07-21)"
   xmlns:inkscape="http://www.inkscape.org/namespaces/inkscape"
   xmlns:sodipodi="http://sodipodi.sourceforge.net/DTD/sodipodi-0.dtd"
   xmlns="http://www.w3.org/2000/svg"
   xmlns:svg="http://www.w3.org/2000/svg"><sodipodi:namedview
     id="namedview1"
     pagecolor="#505050"
     bordercolor="#eeeeee"
     borderopacity="1"
     inkscape:showpageshadow="0"
     inkscape:pageopacity="0"
     inkscape:pagecheckerboard="true"
     inkscape:deskcolor="#505050"
     inkscape:document-units="mm"
     inkscape:zoom="1.6057148"
     inkscape:cx="261.56576"
     inkscape:cy="282.74013"
     inkscape:window-width="1800"
     inkscape:window-height="1097"
     inkscape:window-x="0"
     inkscape:window-y="44"
     inkscape:window-maximized="1"
     inkscape:current-layer="layer1" /><defs
     id="defs1" /><g
     inkscape:label="Layer 1"
     inkscape:groupmode="layer"
     id="layer1"><g
       id="g2"
       inkscape:label="world"><path
         id="path1-5"
         style="display:inline;fill:none;fill-opacity:0.819608;stroke:#1aa474;stroke-width:1.765;stroke-dasharray:none;stroke-opacity:1"
         d="m 61.962626,57.554626 a 15.810856,15.810856 0 0 0 -1.862935,0.128675 15.810856,15.810856 0 0 0 -14.05599,15.695683 15.810856,15.810856 0 0 0 14.583606,15.730306 15.810856,15.810856 0 0 0 0.443901,0.02945 15.810856,15.810856 0 0 0 0.783414,0.05116 15.810856,15.810856 0 0 0 0.549838,-0.02325 15.810856,15.810856 0 0 0 0.485758,-0.02067 15.810856,15.810856 0 0 0 0.24443,-0.01654 A 15.810856,15.810856 0 0 0 77.773547,73.365548 15.810856,15.810856 0 0 0 61.962626,57.554626 Z m -0.03462,0.615467 A 15.810856,15.810856 0 0 1 73.275631,73.323173 15.810856,15.810856 0 0 1 61.888729,88.473669 15.810856,15.810856 0 0 1 50.541618,73.336609 15.810856,15.810856 0 0 1 61.928003,58.170093 Z" /><path
         id="path1-7-7"
         style="display:inline;fill:none;fill-opacity:0.819608;stroke:#1aa474;stroke-width:1.73795;stroke-dasharray:none;stroke-opacity:1"
         d="m 77.163062,73.849947 a 15.305364,15.836213 0 0 0 -3.590748,-10.166563 15.305364,15.836213 0 0 1 -11.99232,6.003046 15.305364,15.836213 0 0 1 -11.696175,-5.644354 15.305364,15.836213 0 0 0 -3.331617,9.807871 15.305364,15.836213 0 0 0 3.764327,10.397409 15.305364,15.836213 0 0 1 11.599128,-5.509773 15.305364,15.836213 0 0 1 11.5406,5.438349 15.305364,15.836213 0 0 0 3.706805,-10.325985 z" /><path
         style="display:inline;opacity:1;fill:none;fill-opacity:0.819608;stroke:#1aa474;stroke-width:1.765;stroke-dasharray:none;stroke-opacity:1"
         d="m 46.444431,73.543963 30.97685,-0.166767"
         id="path2" /></g><g
       id="g4"
       inkscape:label="logistics"><path
         style="display:none;opacity:1;fill:none;fill-opacity:0.819608;stroke:#1aa474;stroke-width:1.765;stroke-dasharray:none;stroke-opacity:1"
         d="M 99.895111,63.692047 V 94.032908 H 123.18549 V 78.426772 l -1.01743,-1.762239 -1.72532,-0.746051 -5.13418,-0.126251 c 0,0 -0.19334,-1.774296 -0.27895,-1.945537 -0.0856,-0.171238 -0.8562,-2.183291 -0.8562,-2.183291 l -1.3271,-2.654202 -1.798,-2.525771 -0.17124,-1.155861 0.4709,-0.08562 0.77058,0.428098 0.77057,-0.128431 -0.0856,-1.626767 -0.0428,-0.428096 z"
         id="path3" /><path
         id="rect3"
         style="opacity:1;fill:none;fill-opacity:0.819608;stroke:#1aa474;stroke-width:1.765;stroke-dasharray:none;stroke-opacity:1"
         d="m 98.681315,54.946 v 4.032312 l 0.665076,0.398942 0.797369,0.709001 0.0889,1.418001 0.015,1.750798 c -0.0443,0.02143 -0.0874,0.04496 -0.12816,0.07183 h -0.497127 c -0.137235,0 -0.24753,0.110812 -0.24753,0.248047 v 2.881994 c 0,0.137236 0.110295,0.247531 0.24753,0.247531 h 0.0031 v 25.93175 c 0,0.609396 0.490277,1.099675 1.099677,1.099675 h 0.85214 a 10.478649,8.5310955 0 0 1 10.13117,-6.414596 10.478649,8.5310955 0 0 1 10.14873,6.414596 h 2.02417 c 0.6094,0 1.10019,-0.490279 1.10019,-1.099675 V 79.179663 a 22.445072,10.915446 53.974803 0 0 -2.77348,-5.18728 22.445072,10.915446 53.974803 0 0 -5.69836,-7.287927 h 5.54489 c 0.13723,0 0.24753,-0.110295 0.24753,-0.247531 v -2.881994 c 0,-0.137235 -0.1103,-0.248047 -0.24753,-0.248047 h -9.22011 a 22.445072,10.915446 53.974803 0 0 -0.10956,-0.0925 h 11.47992 c 0.0443,0 0.0865,0.0054 0.12919,0.0098 -0.13827,-0.0624 -0.29064,-0.09922 -0.45268,-0.09922 h -21.05918 l -0.10801,-3.413228 V 56.231193 L 100.98557,54.946 Z" /><path
         style="opacity:1;fill:none;fill-opacity:0.819608;stroke:#1aa474;stroke-width:1.765;stroke-dasharray:none;stroke-opacity:1"
         d="m 104.03861,68.224034 v 10.184961 h 14.31975 l -3.16476,-5.481532 -8.35069,-4.821274 z"
         id="path7" /><path
         id="rect2"
         style="opacity:1;fill:none;fill-opacity:0.819608;stroke:#1aa474;stroke-width:1.765;stroke-dasharray:none;stroke-opacity:1"
         d="m 29.832804,52.835018 c -0.609398,0 -1.099674,0.490793 -1.099674,1.100191 v 38.405925 c 0,0.609398 0.490276,1.100191 1.099674,1.100191 h 0.941545 a 10.478649,8.5310955 0 0 1 10.105326,-6.318994 10.478649,8.5310955 0 0 1 10.117212,6.318994 h 22.598104 a 10.478649,8.5310955 0 0 1 10.033496,-6.082316 10.478649,8.5310955 0 0 1 10.025228,6.053377 c 0.490868,-0.110733 0.856278,-0.546026 0.856278,-1.071252 V 53.935209 c 0,-0.609398 -0.490791,-1.100191 -1.100191,-1.100191 z" /><path
         id="path9"
         style="opacity:1;fill:none;fill-opacity:0.819608;stroke:#1aa474;stroke-width:3.23927;stroke-dasharray:none;stroke-opacity:1"
         d="m 40.860555,91.162911 a 6.6774693,6.6774693 0 0 0 -6.677112,6.677112 6.6774693,6.6774693 0 0 0 6.677112,6.677627 6.6774693,6.6774693 0 0 0 6.677629,-6.677627 6.6774693,6.6774693 0 0 0 -6.677629,-6.677112 z m 70.687155,0.179834 a 6.6774693,6.6774693 0 0 0 -6.67763,6.677629 6.6774693,6.6774693 0 0 0 6.67763,6.677626 6.6774693,6.6774693 0 0 0 6.67712,-6.677626 6.6774693,6.6774693 0 0 0 -6.67712,-6.677629 z m -27.888217,0.166398 a 6.6774693,6.6774693 0 0 0 -6.677112,6.677629 6.6774693,6.6774693 0 0 0 6.677112,6.677108 6.6774693,6.6774693 0 0 0 6.677629,-6.677108 6.6774693,6.6774693 0 0 0 -6.677629,-6.677629 z" /></g></g></svg>
