<?xml version="1.0" standalone="no"?>
<!DOCTYPE svg PUBLIC "-//W3C//DTD SVG 20010904//EN" "http://www.w3.org/TR/2001/REC-SVG-20010904/DTD/svg10.dtd">
<!-- Created using Krita: https://krita.org -->
<svg xmlns="http://www.w3.org/2000/svg" 
    xmlns:xlink="http://www.w3.org/1999/xlink"
    xmlns:krita="http://krita.org/namespaces/svg/krita"
    xmlns:sodipodi="http://sodipodi.sourceforge.net/DTD/sodipodi-0.dtd"
    width="480pt"
    height="480pt"
    viewBox="0 0 480 480">
<defs/>
<rect id="shape0" transform="matrix(0.666730116794304 0 0 0.666730116794304 6.62012167099462 27.4856230351581)" fill="none" stroke="#006f9b" stroke-width="2.4" stroke-linecap="square" stroke-linejoin="bevel" width="94.32" height="65.52" rx="7.7919726562501" ry="7.7919726562501"/><path id="shape1" transform="matrix(0.666730116794304 0 0 0.666730116794304 14.9409135285875 27.4856230351581)" fill="none" stroke="#006f9b" stroke-width="2.4" stroke-linecap="square" stroke-linejoin="bevel" d="M8.4 0C13.3043 -1.44329e-15 17.7109 0.165565 17.7109 5.06985L14.6069 31.712C12.9104 38.3405 13.3043 43.68 8.4 43.68C3.49571 43.68 4.43621 38.1385 2.85023 31.6233L0 5.04C8.88178e-16 0.135711 3.49571 -2.22045e-16 8.4 0Z" sodipodi:nodetypes="ccccccc"/><path id="shape2" transform="matrix(0.666730116794304 0 0 0.666730116794304 16.4506616976715 48.4364059026678)" fill="none" stroke="#006f9b" stroke-width="1.2" stroke-linecap="square" stroke-linejoin="miter" stroke-miterlimit="2" d="M0 0L12.4302 0" sodipodi:nodetypes="cc"/><path id="shape3" transform="matrix(0.666730116794304 0 0 0.666730116794304 16.8844041471386 50.6173751758319)" fill="none" stroke="#006f9b" stroke-width="1.2" stroke-linecap="square" stroke-linejoin="miter" stroke-miterlimit="2" d="M0 0L11.3712 0" sodipodi:nodetypes="cc"/><rect id="shape4" transform="matrix(0.666730116794304 0 0 0.666730116794304 31.9025276998346 27.485623035158)" fill="none" stroke="#006f9b" stroke-width="2.4" stroke-linecap="square" stroke-linejoin="bevel" width="17.76" height="43.68"/><path id="shape5" transform="matrix(0.666730116794304 0 0 0.666730116794304 49.1841723271429 27.4856230351581)" fill="none" stroke="#006f9b" stroke-width="2.4" stroke-linecap="square" stroke-linejoin="bevel" d="M8.88 1.77636e-15C13.7843 3.00301e-16 17.76 1.60789 17.76 6.51218L17.76 34.8C17.76 39.7043 13.7843 43.68 8.88 43.68C3.97571 43.68 1.17575e-15 39.7043 1.77636e-15 34.8L0 6.48263C6.10623e-16 1.57834 3.97571 1.47606e-15 8.88 1.77636e-15Z" sodipodi:nodetypes="ccccccc"/><path id="shape6" transform="matrix(0.635482429454477 0 0 0.635482429454477 20.3530722751656 56.6570398148052)" fill="none" stroke="#006f9b" stroke-width="2.4" stroke-linecap="square" stroke-linejoin="miter" stroke-miterlimit="2" d="M0 0L0 22.3026" sodipodi:nodetypes="cc"/><path id="shape7" transform="matrix(0.635482429454477 0 0 0.635482429454477 37.7947321305046 56.6570398148052)" fill="none" stroke="#006f9b" stroke-width="2.4" stroke-linecap="square" stroke-linejoin="miter" stroke-miterlimit="2" d="M0 0L0 22.3026" sodipodi:nodetypes="cc"/><path id="shape8" transform="matrix(0.635482429454477 0 0 0.635482429454477 54.9163615297823 56.6570398148052)" fill="none" stroke="#006f9b" stroke-width="2.4" stroke-linecap="square" stroke-linejoin="miter" stroke-miterlimit="2" d="M0 0L0 22.3026" sodipodi:nodetypes="cc"/><path id="shape9" transform="matrix(0.666730116794304 0 0 0.666730116794304 13.3407612482812 13.0328731111033)" fill="none" stroke="#006f9b" stroke-width="2.4" stroke-linecap="square" stroke-linejoin="bevel" d="M21.12 10.8385C21.12 4.85258 16.3921 3.66534e-16 10.56 0C4.72787 -3.66534e-16 7.1423e-16 4.85258 0 10.8385C-7.1423e-16 16.8245 4.74158 17.3264 10.5737 17.3264C16.4058 17.3264 21.12 16.8245 21.12 10.8385Z" sodipodi:nodetypes="ccccc"/><path id="shape10" transform="matrix(0.666730116794304 0 0 0.666730116794304 13.4229761036011 19.9251232581857)" fill="none" stroke="#006f9b" stroke-width="1.2" stroke-linecap="square" stroke-linejoin="miter" stroke-miterlimit="2" d="M0 0L20.5157 0" sodipodi:nodetypes="cc"/><path id="shape11" transform="matrix(0.666730116794304 0 0 0.666730116794304 13.2783920315939 21.7250821509711)" fill="none" stroke="#006f9b" stroke-width="1.2" stroke-linecap="square" stroke-linejoin="miter" stroke-miterlimit="2" d="M0 0L21.0795 0" sodipodi:nodetypes="cc"/><path id="shape12" transform="matrix(0.666730116794304 0 0 0.666730116794304 52.5753641943876 14.100677366625)" fill="none" stroke="#006f9b" stroke-width="2.4" stroke-linecap="square" stroke-linejoin="bevel" d="M6.50125 7.67657C5.92062 3.37586 5.4889 4.44089e-16 3.26101 2.97535e-33C1.03313 -4.44089e-16 0.0892822 4.80098 0 7.83914C-2.22045e-16 14.2815 1.03313 16.5244 3.26101 16.5244C5.4889 16.5244 6.50125 14.1189 6.50125 7.67657Z" sodipodi:nodetypes="ccccc"/><path id="shape13" transform="matrix(0.666730116794304 0 0 0.666730116794304 52.5763017836143 19.7336865828661)" fill="none" stroke="#006f9b" stroke-width="1.2" stroke-linecap="square" stroke-linejoin="miter" stroke-miterlimit="2" d="M0 0L6.54638 0" sodipodi:nodetypes="cc"/><path id="shape14" transform="matrix(0.666730116794304 0 0 0.666730116794304 52.4515731167943 21.4383922701472)" fill="none" stroke="#006f9b" stroke-width="1.2" stroke-linecap="square" stroke-linejoin="miter" stroke-miterlimit="2" d="M0 0L6.62572 0" sodipodi:nodetypes="cc"/><path id="shape15" transform="matrix(0.666730116794304 0 0 0.666730116794304 49.0191175570186 32.7087641442735)" fill="none" stroke="#006f9b" stroke-width="1.2" stroke-linecap="square" stroke-linejoin="miter" stroke-miterlimit="2" d="M0 0L17.8373 0" sodipodi:nodetypes="cc"/><path id="shape16" transform="matrix(0.666730116794304 0 0 0.666730116794304 48.9482416714095 34.8141915604424)" fill="none" stroke="#006f9b" stroke-width="1.2" stroke-linecap="square" stroke-linejoin="miter" stroke-miterlimit="2" d="M0 0L17.9573 0" sodipodi:nodetypes="cc"/><path id="shape17" transform="matrix(0.666730116794304 0 0 0.666730116794304 49.0644734358622 39.1104451448492)" fill="none" stroke="#006f9b" stroke-width="1.2" stroke-linecap="square" stroke-linejoin="miter" stroke-miterlimit="2" d="M0 0L17.7123 0" sodipodi:nodetypes="cc"/><path id="shape18" transform="matrix(0.666730116794304 0 0 0.666730116794304 48.9340704009095 41.1863116423509)" fill="none" stroke="#006f9b" stroke-width="1.2" stroke-linecap="square" stroke-linejoin="miter" stroke-miterlimit="2" d="M0 0L18.0151 0" sodipodi:nodetypes="cc"/><ellipse id="shape19" transform="matrix(0.666730116794304 0 0 0.666730116794304 6.46010644296399 73.8900391640416)" rx="10.56" ry="10.44" cx="10.56" cy="10.44" fill="none" stroke="#006f9b" stroke-width="2.4" stroke-linecap="square" stroke-linejoin="bevel"/><path id="shape20" transform="matrix(0.666301318441089 0.0239081928261515 -0.0239081928261515 0.666301318441089 18.8068474077405 70.3802133928393)" fill="none" stroke="#006f9b" stroke-width="2.4" stroke-linecap="square" stroke-linejoin="bevel" d="M2.32583 0C2.32583 3.96716 5.47239 24.1691 0 24.1691" sodipodi:nodetypes="cc"/><ellipse id="shape21" transform="matrix(0.666730116794304 0 0 0.666730116794304 39.583258645305 73.730023936011)" rx="10.56" ry="10.44" cx="10.56" cy="10.44" fill="none" stroke="#006f9b" stroke-width="2.4" stroke-linecap="square" stroke-linejoin="bevel"/><path id="shape22" transform="matrix(0.666098502412334 0.0290143710011338 -0.0290143710011338 0.666098502412335 52.2975044635424 71.1445991081068)" fill="none" stroke="#006f9b" stroke-width="2.4" stroke-linecap="square" stroke-linejoin="bevel" d="M4.0989 0C4.0989 1.63531 5.97333 22.8685 0 22.8685" sodipodi:nodetypes="cc"/><path id="shape23" transform="matrix(0.665591925609828 0.0389414586725635 -0.0389414586725635 0.665591925609828 31.3943938847518 11.1301685384002)" fill="none" stroke="#006f9b" stroke-width="2.4" stroke-linecap="square" stroke-linejoin="bevel" d="M0 5.6953C6.76724 -1.53813 13.902 -1.88134 21.4044 4.66568" sodipodi:nodetypes="cc"/><path id="shape24" transform="matrix(0.666628471868595 0.0116416981016665 -0.0116416981016665 0.666628471868595 25.5161981751117 4.12629223776145)" fill="none" stroke="#006f9b" stroke-width="2.4" stroke-linecap="square" stroke-linejoin="bevel" d="M0 9.6681C12.3534 -3.07821 25.132 -3.22108 38.3357 9.2395" sodipodi:nodetypes="cc"/><path id="shape25" transform="matrix(0.666548915189643 -0.0155432396898647 0.0155432396898647 0.666548915189643 34.4128095219711 18.3027996411214)" fill="none" stroke="#006f9b" stroke-width="2.4" stroke-linecap="square" stroke-linejoin="bevel" d="M0 3.14465C3.47527 -1.10515 6.92671 -1.04744 10.3543 3.31775" sodipodi:nodetypes="cc"/>
</svg>
