<?xml version="1.0" encoding="UTF-8" standalone="no"?>
<!-- Created with Inkscape (http://www.inkscape.org/) -->

<svg
   width="300mm"
   height="200mm"
   viewBox="0 0 300 200"
   version="1.1"
   id="svg1"
   xml:space="preserve"
   inkscape:version="1.3 (0e150ed, 2023-07-21)"
   sodipodi:docname="girl_sword_building_alley_opt.svg"
   xmlns:inkscape="http://www.inkscape.org/namespaces/inkscape"
   xmlns:sodipodi="http://sodipodi.sourceforge.net/DTD/sodipodi-0.dtd"
   xmlns="http://www.w3.org/2000/svg"
   xmlns:svg="http://www.w3.org/2000/svg"><sodipodi:namedview
     id="namedview1"
     pagecolor="#505050"
     bordercolor="#eeeeee"
     borderopacity="1"
     inkscape:showpageshadow="0"
     inkscape:pageopacity="0"
     inkscape:pagecheckerboard="0"
     inkscape:deskcolor="#505050"
     inkscape:document-units="mm"
     inkscape:zoom="0.9994539"
     inkscape:cx="584.81937"
     inkscape:cy="407.22238"
     inkscape:window-width="1800"
     inkscape:window-height="1097"
     inkscape:window-x="0"
     inkscape:window-y="44"
     inkscape:window-maximized="1"
     inkscape:current-layer="layer1"
     showgrid="false" /><defs
     id="defs1"><linearGradient
       id="swatch10"
       inkscape:swatch="solid"><stop
         style="stop-color:#000000;stop-opacity:1;"
         offset="0"
         id="stop11" /></linearGradient></defs><g
     inkscape:label="Layer 1"
     inkscape:groupmode="layer"
     id="layer1"><g
       id="g13"
       inkscape:label="env"
       style="display:inline;opacity:0.7"><path
         id="path12"
         style="opacity:1;fill:none;fill-opacity:1;stroke:tan;stroke-width:0.899999;stroke-dasharray:none;stroke-opacity:1"
         d="m 181.96701,113.11179 -0.10512,-6.72784 9.98663,-0.52561 m -9.56614,21.65523 v -4.52027 m 1.05122,21.86548 -84.413346,-32.58797 m 87.882386,27.75233 -87.14653,-27.96258 m 85.5697,15.76838 -85.779946,-15.97862 M 293.70813,147.40115 211.64492,132.239 m 82.68845,41.10975 -81.75059,-25.16605 m 81.47847,40.18394 -87.60942,-34.48582 M 1.4960783,198.6792 98.875145,112.1835 m 23.288575,-9.3123 0.0667,-39.185852 8.61155,-4.606174 9.14559,3.337806 -0.4673,34.179139 M 22.387378,179.871 l 0.771979,-82.822268 36.834405,7.058088 0.220565,42.01769 m 104.375163,-63.450525 9.67058,-0.09481 m 99.62807,-46.115121 10.13537,3.261961 M 3.1981968,197.18538 99.254385,112.37802 m 58.129575,-23.54141 7.30034,-5.973006 5.30934,1.232525 M 188.57632,69.21102 210.0033,68.452541 m -32.70932,12.799298 c 1.23252,-0.568856 11.37715,-11.566773 11.37715,-11.566773 l 16.11764,1.611765 M 85.961512,123.64067 c 0.04734,-0.47335 -0.09467,-14.72138 -0.09467,-14.72138 l 4.070863,0.71004 -0.09467,10.46118 M 134.1315,70.957378 134.0666,90.545249 m -4.34561,-18.874403 0.0649,20.560776 M 98.532761,110.18606 16.318395,16.836439 M 97.872763,109.60044 17.271664,17.484895 m 64.858317,77.41171 11.001653,0.05883 0.05883,-1.411978 -10.530993,-3.706439 -0.117666,2.059133 m 16.83427,15.938599 -0.106397,4.62833 m -6.251966,-2.81927 4.634084,-0.1415 -4.191899,-1.9456 -0.548307,0.0531 z m 2.246294,5.53614 -0.03538,-2.77691 0.583681,-0.0177 0.0177,2.19323 m 1.255795,-2.17553 1.061239,-0.53063 m 6.227409,0.17515 -0.83768,-0.10052 m 2.71407,0.70365 c 0.0335,-0.23455 0,-1.27327 0,-1.27327 l -0.67014,0.0335 -0.0335,1.13924 m 8.04169,-4.28889 0.067,1.20625 1.50782,-0.36858 -0.067,-1.17274 z m -0.30157,5.79672 c -0.0335,-0.13403 -0.067,-2.8146 -0.067,-2.8146 l 1.80938,-0.23455 -0.067,3.38422 m 26.80561,5.02605 0.0335,-10.99031 8.34325,-0.23455 v 12.90021 m 81.68148,-19.22953 34.80289,-2.196863 m -34.91852,-0.693746 35.49664,-2.890604 m -34.91852,39.774723 c 0.11563,-0.46249 -0.23125,-39.080978 -0.23125,-39.080978 l 35.03414,-3.699975 -0.23124,49.255913 m -44.51533,-7.97807 -0.34687,-42.665334 66.83079,-10.637428 -0.11562,65.096432 m -144.03738,-48.027354 0.10125,3.063134 m -2.12647,-2.506202 4.35421,-1.746747 0.0253,4.075749 -4.5061,0.96197 z m 19.73264,-6.043041 0.1086,3.257989 m -3.52949,-2.063392 7.57483,-2.171994 0.0814,3.638089 -7.57483,1.438947 z m 30.11225,-9.718599 -0.064,6.396316 m -6.01249,-4.477422 13.04848,-3.773824 v 6.971983 l -12.98452,2.558526 z m 63.38747,-20.660096 0.44775,12.216961 m -13.30434,-7.995393 0.12793,11.00166 m -9.7224,-7.99539 0.19189,9.978249 m -2.17839,0.796692 29.05714,-6.583754 m -28.93053,-3.545099 26.27171,-8.22969 m 26.20839,-28.107565 v 8.039777 m -54.37926,15.066666 0.12661,5.380953 m -8.03978,-5.760783 c 0.25322,0 8.16639,0.0633 8.16639,0.0633 l 54.63248,-23.106443 -14.4336,-0.949579 z m -142.318824,24.90522 -0.07975,8.055118 M 46.815374,70.183186 47.054637,86.054156 M 34.373812,60.373492 c -0.239263,0.319013 0.159506,19.459882 0.159506,19.459882 M 293.70205,36.435329 99.816368,111.55947 m -0.682357,79.41297 0.286099,-79.10693 M 83.112352,191.6877 99.134011,112.58076 M 66.009136,80.935986 73.51186,87.297914 73.366419,94.838877 66.164112,90.911975 Z M 24.625154,52.646882 54.345167,75.361465 54.132881,90.22147 24.83744,75.786035 Z" /></g><g
       id="g2"
       transform="translate(132.08476,-6.1231347)"><g
         id="g65"
         inkscape:label="weaps"><path
           id="path70"
           style="display:inline;opacity:1;fill:none;fill-opacity:1;stroke:tan;stroke-width:0.7;stroke-dasharray:none;stroke-opacity:1"
           d="m 78.911769,154.28336 -2.52666,0.37115 -1.327568,-0.14275 -0.856495,-0.54245 -0.242674,-0.75657 1.284743,-0.12847 0.970695,-0.37115 2.498111,-1.25619 z m -0.842219,-2.98346 0.413973,-0.81367 0.856495,-0.1142 1.027796,0.99925 0.428246,1.94139 0.128474,1.57024 -0.713745,0.47107 -1.484593,-0.61382 m 3.965535,-5.02875 1.260065,-0.94505 1.338818,1.41758 -0.07875,0.63003 -1.338818,0.78754 m -13.38819,-18.19218 -22.759913,29.84777 -4.173966,2.28387 1.181312,-4.48898 21.027326,-30.16279 m -0.393772,-4.41023 0.787541,1.33882 5.434028,3.38642 2.835145,0.15751 0.07876,2.52013 -2.126361,0.0788 -3.465176,-1.49632 -5.040257,-3.15016 0.236262,-2.12636 z m 2.835146,2.12636 c 0.157509,-0.31502 9.214223,-10.55304 9.214223,-10.55304 l 1.653833,-0.31502 0.472525,1.96885 -8.584189,10.39554" /></g><g
         id="g71"
         inkscape:label="girl"><g
           id="g77"
           inkscape:label="clothes"><path
             id="path77"
             style="opacity:1;fill:none;fill-opacity:1;stroke:tan;stroke-width:0.7;stroke-dasharray:none;stroke-opacity:1"
             d="m 72.986447,142.87291 0.729408,1.54999 0.364705,1.32205 0.547055,1.86911 0.455879,2.37058 0.364705,2.32499 m -11.944064,-8.7529 1.1397,0.18235 2.097051,0.18235 2.461752,-0.0456 1.914699,-0.13676 1.322052,-0.22794 0.820587,-1.1397 0.866171,-2.05146 0.273529,-1.55 0.273526,-1.77793 m -16.366103,13.26613 -1.230879,2.18822 -0.820584,1.09412 -1.230876,1.41323 1.41323,1.18528 3.373514,0.68382 4.832331,0.59265 h 2.142638 l 4.148511,-0.82059 3.373514,-1.04852 0.95735,-0.82059 M 59.674741,130.88325 c -0.04559,0.18235 0,2.23382 0,2.23382 l 0.319114,1.41322 0.820586,1.82353 0.319114,0.41029 m -3.64704,-9.20879 -2.324992,2.82646 -1.094113,2.18823 -0.63823,1.27647 2.081703,1.73957 2.55159,1.00203 1.308496,-1.20741 0.394947,-0.85038 m 16.274928,-9.8926 0.501468,1.27647 0.683821,2.18822 1.094112,1.86911 1.185291,1.59558 -0.455882,1.04853 -1.823521,1.18529 -2.324989,0.68382 -1.914697,0.27353 m -6.655853,-11.71613 c 0.227938,0.0456 2.097047,0.22794 2.097047,0.22794 l 1.458818,-0.50147 1.914699,-1.23088 0.136763,2.09706 -1.777933,1.41322 -3.647043,0.18236 -1.367642,-0.27353 -0.227939,-0.95735 z" /></g><g
           id="g79"
           inkscape:label="shoes"><path
             id="path79"
             style="opacity:1;fill:none;fill-opacity:1;stroke:tan;stroke-width:0.7;stroke-dasharray:none;stroke-opacity:1"
             d="m 66.366013,171.65265 0.793219,0.47594 1.163388,0.58169 2.062372,0.26441 1.639319,-0.26441 0.687456,-0.15864 -1.110507,2.69694 -1.004744,2.2739 -0.740339,3.3844 v 1.95661 l 0.317288,2.00948 0.898983,1.4278 1.110507,1.05762 0.898982,0.31729 0.47593,0.5817 -0.105762,0.68745 -1.322033,0.8461 -1.374912,0.47594 -1.427795,0.42305 -1.903727,-0.0529 -1.374913,-0.21152 -0.370168,-0.21153 0.581695,-2.59118 0.317285,-1.53356 0.05288,-3.11999 -0.423051,-2.48542 -0.528812,-3.54305 v -2.48542 l 0.211524,-2.06237 z m -9.677275,-0.42305 1.269151,0.95186 1.639321,0.21153 1.74508,-0.10576 1.692201,-0.52882 0.475933,-0.0529 -0.634577,2.27389 -1.480674,3.12 -1.374913,3.86033 -0.687459,2.64406 -0.158641,1.74508 1.163386,0.21153 h 0.687459 1.26915 l 0.264406,1.4278 -0.158644,1.16338 -3.014234,1.74508 -2.115251,0.10577 -2.326777,-0.42305 -0.317286,-0.63458 1.004742,-2.80271 0.475933,-3.6488 0.528812,-2.96136 0.158644,-1.9566 -0.317286,-4.38915 -0.158644,-1.63932 z" /></g><g
           id="g84"
           inkscape:label="skin"
           style="display:inline"><path
             id="path88"
             style="opacity:1;fill:none;fill-opacity:1;stroke:tan;stroke-width:0.7;stroke-dasharray:none;stroke-opacity:1"
             d="m 74.827476,155.55934 c -0.03859,0.15436 -0.270135,2.73994 -0.270135,2.73994 l -0.192955,1.6594 -0.656042,2.54699 -0.501679,1.65941 -0.540272,1.81376 -0.115771,1.698 0.154364,1.42785 -0.115774,1.50504 -0.154363,1.54363 M 65.87442,157.83619 c -0.07718,0.19296 -0.154363,2.70136 -0.154363,2.70136 l 0.115774,1.92953 0.192952,1.38927 0.50168,2.27686 0.463089,1.19631 0.231545,1.11913 0.308726,1.27349 -0.347315,1.04195 -0.308727,0.65605 m 3.437416,-50.39277 0.182637,1.1567 m -7.401949,49.42902 0.03859,-1.2349 0.308727,-1.46645 0.154363,-1.2349 0.115771,-1.42786 0.926179,-2.43122 0.964769,-2.70135 m -6.869153,-4.32217 c 0.03859,0.19296 -0.154363,1.46645 -0.154363,1.46645 l -0.192953,1.31209 -0.03859,1.96812 v 1.73659 l 0.03859,1.69799 0.03859,2.19968 -0.231545,0.92617 -0.694634,1.73659 -0.424498,1.15772 m 24.063624,-17.21003 0.947891,-0.0758 0.872058,-0.64456 0.454986,-0.83415 -0.454986,-1.78203 -0.644564,-0.94789 -1.251215,-1.06163 m -3.260741,-14.93877 0.379156,0.41707 0.644565,1.28913 0.568732,2.00952 0.113747,1.17539 0.341241,0.60664 0.492903,1.06164 0.227494,3.22283 0.189577,2.08535 0.227494,2.35077 0.07583,0.90998 m -5.91483,-14.06669 -0.151661,1.06164 0.189576,0.87206 0.492903,1.44079 0.492903,1.09955 0.341241,0.68248 -0.03792,1.9337 0.113747,0.53082 0.834144,1.9716 0.606649,1.25122 0.834142,1.93369 0.454988,0.98581 0.227494,0.94789 0.189576,0.68248 0.113752,0.56874 m -22.332282,-14.14252 -1.516623,1.2133 -1.364962,0.75831 -0.834141,0.4929 1.02372,0.0379 1.2133,0.56873 0.909974,1.40288 0.454985,0.90997 m -3.94322,-7.46935 -1.895779,3.147 -0.834142,1.55453 -0.151664,0.98581 0.265409,1.02372 0.985805,0.98581 1.706203,1.28913 1.175382,0.72039 0.909974,0.64457" /></g><g
           id="g89"
           inkscape:label="hair"><path
             style="opacity:1;fill:none;fill-opacity:1;stroke:tan;stroke-width:0.7;stroke-dasharray:none;stroke-opacity:1"
             d="m 60.148411,112.38256 0.426154,-1.4611 1.339337,-1.70461 1.643731,-0.97406 2.069883,-0.54791 1.765491,-0.12176 1.461095,0.12176 1.643732,0.48703 1.217578,0.97406 1.034944,1.21758 0.852305,1.94813 0.243515,2.06988 -0.243515,2.43516 -1.1567,2.06988 -1.76549,1.94813 -2.069886,1.27846 -1.278456,0.60879 -1.826369,0.91318 -1.521975,0.91319 -2.678674,1.09582 -2.435159,1.03494 -2.678673,0.91319 -3.287464,0.91318 -2.983068,0.54791 -2.678676,0.54791 -1.461093,0.0609 2.496037,-0.91318 2.069883,-1.09582 1.339336,-0.91319 -3.896251,-0.12176 -2.556917,-0.79142 -2.191642,-1.27846 -0.791427,-0.73055 -0.730546,-0.73055 2.3134,0.42616 2.678673,0.12175 2.374278,-0.24351 2.069886,-0.48703 1.1567,-0.73055 -2.678673,0.0609 -2.069886,-0.3044 -1.521973,-0.36527 -1.339337,-0.42615 -0.791427,-0.60879 -0.487031,-0.54791 0.852304,-0.24352 1.582854,0.18264 h 2.130764 l 2.009005,-0.24352 2.191642,-0.8523 2.009007,-0.97407 2.313401,-1.58285 1.887246,-1.64373 1.1567,-1.1567 z"
             id="path89" /></g></g></g></g></svg>
